<svg aria-hidden="true" style="position:absolute;width:0;height:0;overflow:hidden" xmlns="http://www.w3.org/2000/svg"><defs>
<symbol id="icon-antenna" viewBox="0 0 32 32">
<path d="m30.773 22.098-8.443-8.505.937-4.616c.225.09.485.144.758.146h.033a2.16 2.16 0 1 0-2.029-1.42l-.005-.015-4.96.606L8.973.161a.53.53 0 0 0-.376-.16.536.536 0 0 0-.373.155L6.712 1.66a.535.535 0 0 0 0 .754l.814.825C6.383 5.301 5.71 7.761 5.71 10.378c0 4.106 1.656 7.824 4.336 10.525l-.001-.001a.49.49 0 0 0 .146.097 2.986 2.986 0 0 0-.052.546v6.188h-6.4a2.669 2.669 0 0 0-2.667 2.666v1.067c0 .295.239.534.534.534H26.14a.534.534 0 0 0 .533-.534v-1.067a2.67 2.67 0 0 0-2.666-2.666h-6.4v-2.742a14.784 14.784 0 0 0 10.166-1.502l-.077.039.818.823a.534.534 0 0 0 .376.16.536.536 0 0 0 .373-.155l1.512-1.504a.535.535 0 0 0 0-.754zM23.28 6.233a1.067 1.067 0 1 1 .752 1.822h-.004a1.066 1.066 0 0 1-.747-1.822h-.002zm-1.256 3.504-.598 2.946-1.175-1.183 1.774-1.763zm-.605-.902-1.92 1.909-1.486-1.493 3.406-.416zM24.004 28.8a1.6 1.6 0 0 1 1.6 1.6v.534H2.138V30.4a1.6 1.6 0 0 1 1.6-1.6h20.267zm-7.466-2.134v1.067h-5.334v-1.067h5.334zM11.204 25.6v-4.053c0-1.294 1.196-2.346 2.667-2.346s2.667 1.053 2.667 2.346V25.6h-5.334zm6.4-1.696v-2.357c0-1.882-1.675-3.413-3.733-3.413h-.058c-1.353 0-2.54.707-3.213 1.771l-.009.016a13.817 13.817 0 0 1-3.812-9.55c0-2.314.567-4.496 1.569-6.414l-.036.077 18.602 18.709c-1.823.947-3.979 1.502-6.266 1.502-1.079 0-2.128-.124-3.136-.357l.093.018zm11.289-.684L7.836 2.039l.754-.752 7.935 7.98c.004 0 .006.007.01.01l13.114 13.191-.757.752z"/>
<path fill="#2196f3" style="fill:var(--color1, #2196f3)" d="M13.876 20.267h-.007a1.6 1.6 0 0 0-.003 3.2h.007a1.6 1.6 0 0 0 .002-3.2zm.373 1.978a.534.534 0 1 1-.378-.912.533.533 0 0 1 .374.911h.005z"/></symbol>
<symbol id="icon-astronaut" viewBox="0 0 32 32">
<path fill="#2196f3" style="fill:var(--color1, #2196f3)" d="M31.974 4.524a.535.535 0 0 0-.427-.362h-.003l-1.911-.278-.855-1.731c-.179-.365-.777-.365-.956 0l-.855 1.731-1.911.278a.534.534 0 0 0-.296.91l1.383 1.348-.326 1.903a.532.532 0 0 0 .774.562l1.709-.899 1.709.899a.534.534 0 0 0 .773-.565v.003l-.326-1.903 1.383-1.348a.535.535 0 0 0 .134-.55l.001.004zm-2.463 1.327a.53.53 0 0 0-.153.472l.191 1.114-1-.526a.525.525 0 0 0-.501.001l.003-.001-1 .526.191-1.114a.53.53 0 0 0-.152-.472l-.811-.789 1.119-.163a.532.532 0 0 0 .402-.292l.5-1.013.5 1.013a.532.532 0 0 0 .402.292l1.119.162-.809.79zm-3.377 14.671h-1.067v1.067h1.067v-1.067zm0 2.134h-1.067v1.066h1.067v-1.066zm1.066-1.067h-1.067v1.067H27.2v-1.067zm-2.133 0H24v1.067h1.067v-1.067zm-2.667 4.8h-1.067v1.067H22.4v-1.067zm0 2.134h-1.067v1.067H22.4v-1.067zm1.067-1.067H22.4v1.067h1.067v-1.067zm-2.133 0h-1.067v1.067h1.067v-1.067zM16 24.256h-1.066v1.067H16v-1.067zm0 2.133h-1.066v1.067H16v-1.067zm1.067-1.067H16v1.067h1.067v-1.067zm-2.133 0h-1.067v1.067h1.067v-1.067zm-9.067-19.2H4.801v1.066h1.066V6.122zm0 2.134H4.801v1.066h1.066V8.256zm1.066-1.067H5.866v1.067h1.066V7.189zm-2.133 0H3.733v1.067H4.8V7.189z"/>
<path d="M24.715 14.16a1.774 1.774 0 0 0-1.179-.703l-.009-.001a1.769 1.769 0 0 0-1.344.355l.004-.003-1.253.96-1.898 1.417-1.358-.541c2.421-1.086 4.113-3.508 4.113-6.32 0-3.823-3.122-6.934-6.961-6.934S7.869 5.5 7.869 9.324c0 1.386.415 2.674 1.12 3.759l-2.768-.024c-.009 0-.016.005-.023.005a.511.511 0 0 0-.159.033l.004-.001c-.013.005-.026.007-.038.013-.006.003-.013.003-.019.006l-3.233 1.596-.001.001-1.893.91a.429.429 0 0 0-.064.036l.001-.001a1.782 1.782 0 0 0-.594 2.306l-.005-.01c.22.424.592.742 1.043.885l.013.003a1.772 1.772 0 0 0 1.388-.133l-.009.005 1.388-.738 2.264-1.169 1.357-.008-5.442 5.415-.001.001-1.339 1.333a1.643 1.643 0 0 0-.491 1.173v.005a1.668 1.668 0 0 0 1.667 1.664h.002a1.67 1.67 0 0 0 1.18-.485l1.314-1.309 1.741-1.3.901.897-3.102 3.088a1.645 1.645 0 0 0-.491 1.174v.004a1.662 1.662 0 0 0 1.666 1.664h.003a1.67 1.67 0 0 0 1.18-.485l4.488-4.472c.007-.006.016-.009.022-.016l5.166-5.658 3.471.494a.474.474 0 0 0 .262-.032c.017-.006.032-.015.049-.023.019-.01.039-.015.058-.027l3.213-2.133c.012-.008.018-.021.029-.03.013-.01.029-.014.041-.026l1.271-1.191c.348-.326.564-.787.564-1.3 0-.4-.132-.769-.355-1.066l.003.005zM2.13 17.77a.706.706 0 0 1-.564.05l.005.001a.717.717 0 0 1-.214-1.258l.002-.001 1.314-.632.316.924.133.389-.992.527zm3.497-1.828-1.548.8-.255-.746-.184-.537 2.027-1.001-.04 1.484zm15.1-6.62c0 .918-.219 1.785-.599 2.56l-4.181-1.899a1.865 1.865 0 0 0-.782-1.384l-.006-.004 1.464-4.86c2.377.756 4.104 2.974 4.104 5.588zm-11.789 0c0-3.235 2.644-5.867 5.894-5.867.253 0 .5.022.745.053l-1.432 4.753c-.019 0-.037-.006-.057-.006h-.001a1.872 1.872 0 0 0-1.872 1.867 1.873 1.873 0 0 0 1.872 1.867h.001c.695 0 1.295-.383 1.618-.944l3.863 1.755a5.893 5.893 0 0 1-4.737 2.389c-3.25 0-5.894-2.632-5.894-5.867zm5.957.8c0 .441-.362.8-.806.8h-.001a.804.804 0 0 1-.804-.8c0-.441.361-.8.806-.8s.806.359.806.8zM2.464 25.146a.606.606 0 0 1-.855.001.591.591 0 0 1 0-.844l.962-.959.852.848-.959.955zm3.214 3.734a.606.606 0 0 1-.855.001.591.591 0 0 1 0-.844l.963-.959.852.848-.96.955zm3.482-3.469-.001.001-1.765 1.76-.852-.848 1.765-1.757a.527.527 0 0 0 .09-.136c.007-.014.02-.026.026-.04.016-.041.019-.085.026-.128.003-.025.014-.048.014-.073 0-.035-.013-.07-.02-.105-.006-.032-.006-.064-.019-.096a.536.536 0 0 0-.092-.138c-.01-.012-.014-.027-.025-.038h-.001l-.001-.002-1.607-1.6c-.017-.017-.039-.024-.058-.038a.563.563 0 0 0-.084-.057l-.003-.001a.453.453 0 0 0-.09-.031l-.003-.001a.502.502 0 0 0-.101-.02h-.002l-.023-.001a.603.603 0 0 0-.075.005h.003c-.036.005-.069.009-.104.021a.502.502 0 0 0-.096.046l.002-.001c-.02.011-.043.015-.061.029l-1.774 1.324-.901-.897 2.399-2.386 4.36 4.289-.928.919zm6.819-7.017c-.016-.002-.03.004-.046.003l-.027-.001a.562.562 0 0 0-.092.008h.003a.484.484 0 0 0-.187.07l.002-.001a.528.528 0 0 0-.083.062c-.013.011-.028.016-.04.029l-4.698 5.146-4.328-4.256 2.833-2.818a.535.535 0 0 0-.378-.911h-.002l-2.219.013.028-1.607 3.104.027a6.928 6.928 0 0 0 4.978 2.101h.003c.438 0 .864-.046 1.28-.122.04.032.08.064.129.085l2.41.96.152.759.178.885-3.003-.427zm4.041.178-.313-1.558 1.446-1.08.946 1.257-2.08 1.381zm3.753-2.831-.837.785-.931-1.237.831-.637a.735.735 0 0 1 .543-.143.718.718 0 0 1 .621.71.71.71 0 0 1-.226.521z"/>
<path fill="#2196f3" style="fill:var(--color1, #2196f3)" d="m13.602 18.544-2.143-2.134a.53.53 0 0 0-.752 0l-2.143 2.133a.535.535 0 0 0 0 .756l2.142 2.134a.53.53 0 0 0 .752 0l2.143-2.134a.532.532 0 0 0 0-.756zm-2.519 1.759-1.387-1.381 1.386-1.381 1.387 1.381-1.387 1.381zm6.081-15.232-.258 1.036c.071.018 1.738.452 1.738 2.149h1.067c0-2.017-1.666-2.965-2.547-3.184zm2.547 4.251h-1.067v1.066h1.067V9.322z"/></symbol>
<symbol id="icon-clock" viewBox="0 0 32 32">
<path d="M31.296 15.301C31.295 6.849 24.441-.002 15.988 0S.685 6.855.687 15.308c.002 6.788 4.422 12.543 10.541 14.545l.108.031a.667.667 0 0 0 .529-.065.636.636 0 0 0 .283-.357l3.865-12.25a1.913 1.913 0 1 0-.852-3.63l.011-.005-5.106-5.107a.638.638 0 0 0-.902.902l5.103 5.109a1.847 1.847 0 0 0-.191.826c0 .602.283 1.137.723 1.48l.004.003-3.682 11.673C3.843 25.782.117 17.709 2.797 10.431S13.551-.573 20.829 2.108c7.278 2.681 11.004 10.754 8.323 18.032-1.345 3.581-4.003 6.406-7.374 7.938l-.088.036-.398-1.874a.639.639 0 0 0-1.05-.343l.001-.001-3.837 3.426a.637.637 0 0 0 .227 1.083l.005.001 4.899 1.563a.637.637 0 0 0 .818-.744l.001.004-.391-1.839c5.528-2.374 9.329-7.772 9.329-14.057v-.034.002zm-15.304-.637a.638.638 0 0 1 0 1.276.638.638 0 0 1 0-1.276zm2.1 14.864 2.184-1.948.603 2.84-2.787-.892z"/><path fill="#2196f3" style="fill:var(--color1, #2196f3)" d="M15.354 3.185V4.46a.638.638 0 0 0 1.276 0V3.185a.638.638 0 1 0-1.276 0zM3.876 14.664a.638.638 0 0 0 0 1.276h1.275a.638.638 0 0 0 0-1.276H3.876zm24.232 1.275a.638.638 0 0 0 0-1.276h-1.275a.638.638 0 0 0 0 1.276h1.275z"/></symbol>
<symbol id="icon-diagram" viewBox="0 0 32 32">
<path fill="#2196f3" style="fill:var(--color1, #2196f3)" d="M14.926 14.965h1.066v4.798h-1.066v-4.798zm4.264 2.132h1.066v2.665H19.19v-2.665zm-8.529 1.599h1.066v1.066h-1.066v-1.066zm-3.198-.533h1.066v1.599H7.463v-1.599z"/>
<path d="M1.599 28.291h25.586a1.6 1.6 0 0 0 1.599-1.599V24.56a1.6 1.6 0 0 0-1.599-1.599h-.533V9.667l3.028-2.868a1.608 1.608 0 1 0-.742-.752l-.004-.01-2.281 2.162v-1.23a1.6 1.6 0 0 0-1.599-1.599H3.731a1.6 1.6 0 0 0-1.599 1.599v15.992h-.533A1.6 1.6 0 0 0 0 24.56v2.132a1.6 1.6 0 0 0 1.599 1.599zM30.384 4.837a.533.533 0 0 1 0 1.066.533.533 0 0 1 0-1.066zM3.198 6.969c0-.294.239-.533.533-.533h21.323c.294 0 .533.239.533.533v2.239l-1.066 1.013V8.036a.534.534 0 0 0-.534-.534H4.798a.534.534 0 0 0-.534.533v13.327c0 .294.239.533.534.533h19.189a.534.534 0 0 0 .534-.533v-9.675l1.066-1.01V22.96H3.198V6.969zm4.798 6.93h-.005a1.6 1.6 0 1 0 1.112 2.748l1.853.93a.535.535 0 0 0 .636-.122l3.939-4.432 3.872 2.902a.534.534 0 0 0 .686-.039l3.365-3.188v8.131H5.331V8.568h18.123v2.661l-3.771 3.572-3.904-2.927a.534.534 0 0 0-.718.071v.001l-3.993 4.493-1.493-.746c.011-.064.017-.128.02-.193a1.6 1.6 0 0 0-1.599-1.599zm.533 1.599a.533.533 0 0 1-1.066 0 .533.533 0 0 1 1.066 0zm3.198 8.528h5.33v.533a.533.533 0 0 1-.533.533h-4.265a.533.533 0 0 1-.533-.533v-.533zm-10.66.534c0-.294.238-.533.533-.533h9.062v.533a1.6 1.6 0 0 0 1.599 1.599h4.265a1.6 1.6 0 0 0 1.599-1.599v-.533h9.062c.294 0 .533.239.533.533v2.132a.533.533 0 0 1-.533.533H1.601a.533.533 0 0 1-.533-.533V24.56z"/></symbol>
<symbol id="icon-envelope" viewBox="0 0 43 32">
<path d="M38.667 0H4C1.795 0 0 1.795 0 4v24c0 2.205 1.795 4 4 4h34.667c2.205 0 4-1.795 4-4V4c0-2.205-1.795-4-4-4zm0 2.667c.181 0 .355.037.512.104L21.334 18.238 3.489 2.771c.151-.065.327-.104.512-.104h34.667zm0 26.666H4A1.333 1.333 0 0 1 2.667 28V5.587l17.792 15.421c.233.203.539.327.875.327s.642-.124.876-.328l-.002.001L40 5.587V28c0 .736-.597 1.333-1.333 1.333z"/></symbol>

<symbol id="icon-facebook" viewBox="0 0 32 32"><path d="M21.328 5.312h2.923V.224A36.478 36.478 0 0 0 20.144 0h-.157.008c-4.213 0-7.099 2.65-7.099 7.52V12H8.25v5.688h4.646V32h5.699V17.69h4.459l.709-5.688h-5.17V8.08c0-1.643.443-2.768 2.734-2.768z"/></symbol>

<symbol id="icon-group-2" viewBox="0 0 24 32"><path d="M10.333 2.203h-.083c-.127-.008-.254-.011-.38-.014h-.275c-.24 0-.484.006-.727.018l-.027-.001-.029.001h.001a17.038 17.038 0 0 0-6.452 1.664l.102-.044-.261.126v13.368l.611-.207c.536-.184 1.107-.35 1.698-.504 1.46-.391 3.141-.626 4.873-.649h.014v1.756c-.231.001-.455.008-.679.02l.036-.001h-.051a19.55 19.55 0 0 0-3.896.608l.136-.03A19.041 19.041 0 0 0 .366 20.11l.098-.05V2.915A17.577 17.577 0 0 1 5.04 1.03l.124-.027A17.546 17.546 0 0 1 9.59.432h.262c.309.008.61.022.892.043.814.059 1.567.184 2.295.371l-.088-.019v1.729c-.63-.155-1.376-.27-2.139-.324l-.043-.002a5.148 5.148 0 0 0-.437-.025zm3.042 1.767c.383.029.781.042 1.182.042a19.022 19.022 0 0 0 4.789-.626l-.132.03a19.15 19.15 0 0 0 4.577-1.797l-.099.05v16.839a17.59 17.59 0 0 1-4.576 1.884l-.125.027a17.639 17.639 0 0 1-4.426.57h-.113c-1.154 0-2.275-.145-3.345-.417l.094.02V3.643a13.76 13.76 0 0 0 2.123.323l.05.003zm8.57.13-.611.205c-.561.189-1.129.358-1.698.508-1.521.407-3.269.644-5.071.651h-.004c-.399 0-.765-.01-1.119-.034l-.487-.032V19.15l.418.036c.388.034.788.051 1.191.051a16.26 16.26 0 0 0 4.11-.543l-.113.026a16.615 16.615 0 0 0 3.223-1.167l-.1.044.261-.126V4.099zM1.653 25.917a.898.898 0 0 0-.648-.275l-.033.001h.002-.013a1.01 1.01 0 0 0-.386.076l.007-.002a.888.888 0 0 0-.5.502l-.002.006a.984.984 0 0 0-.07.379v2.291c-.006.162.025.322.09.47a.912.912 0 0 0 .229.307.8.8 0 0 0 .314.163c.112.031.227.047.342.047a.969.969 0 0 0 .949-.964v-.256h-.6v.218a.543.543 0 0 1-.036.194l.001-.004a.354.354 0 0 1-.087.129.426.426 0 0 1-.25.088.303.303 0 0 1-.28-.122l-.001-.001a.541.541 0 0 1-.08-.284l.001-.024v.001-2.136a.726.726 0 0 1 .074-.342.305.305 0 0 1 .294-.138H.969.98c.105 0 .198.051.256.129l.001.001a.482.482 0 0 1 .099.294v.014-.001.198h.593V26.632c0-.14-.027-.275-.076-.398l.003.007a.944.944 0 0 0-.201-.323zm3.557-.026a1.035 1.035 0 0 0-1.038-.187.949.949 0 0 0-.546.502l-.002.006a1.07 1.07 0 0 0-.088.444v2.197c-.004.155.026.308.088.45a.886.886 0 0 0 .232.307.928.928 0 0 0 .316.193 1.027 1.027 0 0 0 1.04-.194l-.001.001a.938.938 0 0 0 .226-.307c.062-.142.091-.296.088-.45v-2.217a1.07 1.07 0 0 0-.09-.431l.003.007a1.014 1.014 0 0 0-.225-.321zm-.28 2.962.001.034a.396.396 0 0 1-.12.284.436.436 0 0 1-.565 0l.001.001a.393.393 0 0 1-.12-.283l.002-.036v.002-2.198l-.001-.034c0-.111.046-.212.12-.284a.436.436 0 0 1 .565 0l-.001-.001a.393.393 0 0 1 .118.319v-.002 2.197zm4.952.981v-4.16h-.575l-.757 2.202h-.01l-.763-2.201h-.569v4.159h.594v-2.53h.011l.581 1.788h.296l.587-1.788h.01v2.53h.594zm3.376-3.868a.825.825 0 0 0-.336-.228 1.282 1.282 0 0 0-.407-.064h-.026.001-.883v4.159h.593v-1.624h.305c.185.008.369-.03.535-.113a.87.87 0 0 0 .323-.314l.002-.004a1 1 0 0 0 .136-.362c.023-.156.034-.314.032-.473a2.377 2.377 0 0 0-.058-.594.886.886 0 0 0-.219-.382zm-.306 1.268a.538.538 0 0 1-.056.22l.001-.003a.336.336 0 0 1-.151.145l-.002.001a.594.594 0 0 1-.249.053l-.032-.001h.002-.271v-1.414h.306l.029-.001c.087 0 .169.019.242.054l-.003-.001a.344.344 0 0 1 .138.152l.001.002c.033.072.05.152.052.231v.277c0 .097.006.197 0 .286h-.006zm3.113-1.559h-.486l-.917 4.159h.593l.174-.894h.808l.174.894h.593l-.939-4.16zm-.547 2.699.292-1.508h.011l.29 1.508h-.592zm4.376-.193h-.011l-.895-2.506h-.57v4.159h.593v-2.501h.012l.906 2.501h.557v-4.159h-.592v2.506zm3.622-2.506-.477 1.654h-.012l-.477-1.654h-.627l.814 2.402v1.758h.593v-1.759l.814-2.401h-.628zM0 31.009h.286v.801H.48v-.801h.284v-.164H.001v.164zm2.401-.165-.374.966h.206l.08-.22h.385l.083.22h.211l-.384-.966h-.206zm-.03.584.131-.358.131.358H2.37zm2.404.026h.223v.124a.365.365 0 0 1-.229.081h-.014a.245.245 0 0 1-.191-.092.4.4 0 0 1-.072-.23l.001-.023v.001c0-.215.093-.322.278-.322l.02-.001c.095 0 .175.065.198.154v.001l.191-.037c-.041-.189-.177-.284-.409-.284h-.013a.483.483 0 0 0-.324.124.469.469 0 0 0-.138.374v-.002.022c0 .13.047.249.125.341l-.001-.001a.465.465 0 0 0 .336.142l.032-.001h-.001.015a.58.58 0 0 0 .394-.154v-.38h-.418v.163zm2.424-.61h-.196v.966h.676v-.165h-.481v-.801zm2.05 0h-.196v.966h.196v-.966zm2.004.645-.396-.645h-.189v.966h.181v-.632l.388.631h.194v-.966h-.179v.645zm1.811-.105h.481v-.164h-.481v-.212h.517v-.164h-.713v.966h.733v-.165h-.537v-.261zm4.392-.159h-.38v-.38h-.193v.966h.193v-.423h.38v.423h.194v-.966h-.194v.38zm1.823.159h.483v-.164h-.483v-.212h.519v-.164h-.712v.966h.732v-.165h-.537v-.261zm2.471 0c.168-.025.254-.115.254-.268a.23.23 0 0 0-.094-.214h-.001a.533.533 0 0 0-.245-.058l-.039.001h.002-.409v.966h.194v-.405h.054c.038 0 .074.008.107.023l-.002-.001a.204.204 0 0 1 .069.071l.211.307h.232l-.118-.189a.676.676 0 0 0-.211-.23l-.002-.002zm-.196-.133h-.143v-.243h.153a.49.49 0 0 1 .201.024l-.004-.001a.127.127 0 0 1 .027.156v-.001a.134.134 0 0 1-.036.042.549.549 0 0 1-.161.024l-.038-.001h.002zm2.06.133h.481v-.164h-.481v-.212h.519v-.164h-.715v.966h.733v-.165h-.537v-.261z"/></symbol>
<symbol id="icon-group-3" viewBox="0 0 34 32">
<path d="M5.643 31.315c.012 0 .024.003.035.008s.021.011.03.018l.166.158c-.13.129-.289.232-.468.302a1.78 1.78 0 0 1-.62.109l-.045-.001h.002a1.742 1.742 0 0 1-.622-.101 1.365 1.365 0 0 1-.47-.286l.001.001a1.277 1.277 0 0 1-.3-.432l-.003-.008a1.438 1.438 0 0 1-.107-.55v-.017.001-.029c0-.388.168-.737.436-.977l.001-.001a1.52 1.52 0 0 1 .498-.287 1.96 1.96 0 0 1 .642-.101h.04c.199 0 .39.034.568.096l-.012-.004c.165.062.316.149.447.255l-.139.169a.138.138 0 0 1-.034.03h-.001a.098.098 0 0 1-.048.013h-.008a.132.132 0 0 1-.062-.018h.001l-.074-.046-.104-.058a1.182 1.182 0 0 0-.321-.1l-.007-.001a1.376 1.376 0 0 0-.23-.018h-.019.001-.015c-.16 0-.313.028-.455.079l.009-.003a1.07 1.07 0 0 0-.363.214l.001-.001a.99.99 0 0 0-.235.339 1.117 1.117 0 0 0-.085.432v.017-.001.019c0 .157.031.307.088.444l-.003-.008a.953.953 0 0 0 .576.548c.136.049.281.073.427.072.085.001.17-.004.254-.014.211-.022.4-.106.55-.234l-.001.001a.133.133 0 0 1 .078-.029zm4.798-.798c.003.191-.035.381-.112.562a1.24 1.24 0 0 1-.311.435l-.001.001c-.138.123-.301.22-.481.283l-.01.003a2.03 2.03 0 0 1-1.278-.004l.014.004a1.471 1.471 0 0 1-.489-.288l.001.001a1.28 1.28 0 0 1-.313-.432l-.003-.008a1.454 1.454 0 0 1 .004-1.134l-.004.01c.071-.165.178-.315.316-.442a1.45 1.45 0 0 1 .488-.277 2.003 2.003 0 0 1 1.278.004l-.014-.004c.184.065.351.162.49.286a1.296 1.296 0 0 1 .426 1zm-.436 0v-.024a1.19 1.19 0 0 0-.082-.436l.003.008a.935.935 0 0 0-.566-.548l-.007-.002a1.455 1.455 0 0 0-.928.003l.01-.003a.997.997 0 0 0-.352.214.914.914 0 0 0-.223.331l-.002.006a1.321 1.321 0 0 0 .003.911l-.003-.009c.101.26.31.46.57.547l.007.002c.296.097.622.097.918 0a.97.97 0 0 0 .35-.211.933.933 0 0 0 .222-.338c.056-.145.082-.298.079-.451zm3.71.473.044.101c.016-.036.03-.069.047-.101a.95.95 0 0 1 .054-.099l1.061-1.677c.021-.029.04-.047.061-.053s.047-.009.073-.009h.015-.001.314v2.728h-.372v-2.09a.68.68 0 0 1 0-.096v.002l-1.069 1.701a.158.158 0 0 1-.062.061h-.001a.19.19 0 0 1-.09.023h-.064a.183.183 0 0 1-.09-.023h.001a.15.15 0 0 1-.061-.061v-.001l-1.099-1.711v2.189h-.359v-2.722h.328c.026 0 .051.003.075.01h-.002c.026.011.046.03.058.053l1.084 1.678a.49.49 0 0 1 .054.098zm3.995-.135v1.021h-.414v-2.723h.926c.175-.003.35.018.517.059.134.034.259.091.366.17.089.07.159.16.205.262l.002.004c.05.111.073.23.071.349v.017a.755.755 0 0 1-.299.603l-.002.001a1.062 1.062 0 0 1-.368.18c-.14.04-.301.064-.468.064h-.035l-.501-.008zm0-.293h.503c.109.002.218-.013.322-.041a.69.69 0 0 0 .234-.119l-.002.001a.522.522 0 0 0 .191-.404v-.007l.001-.029a.453.453 0 0 0-.043-.195l.001.003a.529.529 0 0 0-.144-.185l-.001-.001a.888.888 0 0 0-.562-.146h.003-.503v1.122zm5.584 1.318h-.334a.15.15 0 0 1-.086-.026h.001a.169.169 0 0 1-.054-.062v-.001l-.282-.658H21.12l-.293.658a.152.152 0 0 1-.051.061.156.156 0 0 1-.089.027h-.332l1.246-2.728h.432l1.263 2.728zm-2.057-1.013h1.173l-.495-1.11a1.87 1.87 0 0 1-.093-.256l-.048.142a1.284 1.284 0 0 1-.049.124l.003-.008-.49 1.108zm3.852-1.701a.173.173 0 0 1 .062.048l1.817 2.056v-2.117h.372v2.728h-.212a.204.204 0 0 1-.082-.017h.001a.221.221 0 0 1-.066-.05l-1.816-2.054.001.047-.002.049v-.002 2.027h-.372v-2.728h.22c.025 0 .051.005.075.013zm5.313 1.629v1.083h-.415v-1.082l-1.149-1.643h.381c.03 0 .057.009.08.023h-.001a.234.234 0 0 1 .056.062l.718 1.06c.049.07.092.149.124.234l.003.008.055-.117a.894.894 0 0 1 .07-.124l.709-1.067a.293.293 0 0 1 .053-.058.137.137 0 0 1 .082-.027h.384l-1.15 1.65zm-16.893-6.219c.181.02.363.036.549.05 2.803-1.09 5.174-2.872 6.818-5.126s2.485-4.878 2.421-7.546l-3.089-2.683c.628 2.84.334 5.775-.849 8.478s-3.208 5.067-5.849 6.827z"/>
<path d="m12.407 24.451.083.015c2.822-1.755 4.973-4.203 6.176-7.031s1.402-5.904.571-8.83l-4.4-3.822c1.779 3.142 2.496 6.659 2.065 10.141-.43 3.482-1.989 6.786-4.495 9.528zm14.921-9.345c-.747 2.931-2.563 5.574-5.177 7.538a16.213 16.213 0 0 1-2.367 1.49l-.092.043c2.129-.543 4.085-1.504 5.718-2.808s2.901-2.917 3.703-4.714l-1.784-1.549z"/><path d="m26.629 14.674-2.541-2.207c-.049 2.517-.872 4.976-2.385 7.122s-3.66 3.902-6.217 5.084h.012c.57 0 1.139-.03 1.705-.088 2.39-.848 4.502-2.197 6.146-3.926s2.771-3.785 3.278-5.985zM12.774 3.17 9.743.534c-2.709.91-5.039 2.509-6.686 4.588S.526 9.664.518 12.188c.01 2.789 1.09 5.495 3.07 7.69 1.979 2.194 4.744 3.754 7.858 4.43 2.78-2.942 4.408-6.578 4.646-10.379s-.924-7.57-3.319-10.758zM33.63 14.268c-.011-3.308-1.528-6.478-4.221-8.818s-6.342-3.658-10.15-3.668h-.028c-1.831 0-3.59.305-5.231.867l.114-.034L32.67 18.737c.605-1.313.958-2.849.96-4.468v-.001z"/></symbol>
<symbol id="icon-group-5" viewBox="0 0 43 32">
<path d="M3.239 26.373a.98.98 0 0 1 .25.665.964.964 0 0 1-.092.466l.003-.006a1.057 1.057 0 0 1-.296.378l-.002.002a1.776 1.776 0 0 1-1.13.306h.006H.001V23.97h1.936a1.76 1.76 0 0 1 1.08.283l-.007-.004a.981.981 0 0 1 .289.354.893.893 0 0 1 .086.436.92.92 0 0 1-.225.644c-.15.168-.358.283-.59.33.262.044.499.172.667.361zM.92 25.737h.828a.843.843 0 0 0 .526-.14.516.516 0 0 0 .14-.184l.001-.003a.46.46 0 0 0 .038-.185l-.002-.042v.002l.001-.035a.475.475 0 0 0-.04-.192l.001.003a.51.51 0 0 0-.138-.187l-.001-.001a.845.845 0 0 0-.545-.142h.003-.815v1.106zm1.435 1.616a.527.527 0 0 0 .151-.19l.001-.003a.472.472 0 0 0 .044-.202l-.001-.035v.002l.001-.031a.49.49 0 0 0-.047-.21l.001.003a.534.534 0 0 0-.154-.193l-.001-.001a.898.898 0 0 0-.565-.152h.003H.92v1.16h.88a.94.94 0 0 0 .556-.146zm4.842.832-1.076-1.648h-.405v1.648h-.927V23.97h1.755a1.824 1.824 0 0 1 1.225.362l-.005-.003a1.293 1.293 0 0 1 .42.938c0 .307-.109.589-.291.808l.002-.002a1.461 1.461 0 0 1-.829.427l-.008.001 1.147 1.684H7.197zm-1.482-2.222h.758c.526 0 .79-.212.79-.638l.001-.034a.58.58 0 0 0-.045-.225l.001.004a.628.628 0 0 0-.15-.218.865.865 0 0 0-.6-.171h.003-.767l.009 1.283zm6.547 1.373h-1.846l-.326.849h-.972l1.695-4.168h1.051l1.689 4.168h-.971l-.319-.848zm-.247-.638-.675-1.779-.675 1.779h1.349zm6.587 1.487h-.919l-2.063-2.866v2.866h-.918v-4.216h.918l2.063 2.883v-2.883h.919v4.216zm5.25-1.009c-.191.318-.48.577-.833.744a2.883 2.883 0 0 1-1.219.267l-.079-.001h.004-1.637v-4.215h1.637l.077-.001c.441 0 .859.096 1.235.267l-.019-.008c.352.163.642.419.832.735.189.343.288.722.288 1.106s-.099.763-.288 1.106zm-1.052-.101c.25-.261.404-.616.406-1.006 0-.369-.144-.726-.406-1.006a1.681 1.681 0 0 0-1.157-.358h.005-.639v2.729h.639a1.69 1.69 0 0 0 1.156-.361l-.004.003zM12.838.522s11.873 4.104 11.621 10.043V20.61s-11.864-4.106-11.617-10.045L12.838.522zm22.199 17.737a17.218 17.218 0 0 1 7.544-2.545v-3.146c-3.12 1.102-5.767 3.098-7.544 5.691z"/>
<path d="M33.69 19.207c1.835-3.384 5.017-5.995 8.891-7.297V2.849S25.672 8.695 26.029 17.153v14.302s.754-.261 1.939-.752c0-.457 0-.918.054-1.382.349-3.926 2.388-7.564 5.667-10.115z"/>
<path d="M32.082 24.52a13.62 13.62 0 0 1 .592-2.928c-2.043 2.203-3.279 4.936-3.536 7.816-.025.272-.039.543-.045.824a47.103 47.103 0 0 0 3.524-1.703l-.273.133a13.57 13.57 0 0 1-.263-4.142zm.672.051a13.013 13.013 0 0 0 .224 3.835l-.015-.084c4.62-2.531 9.811-6.442 9.61-11.168v-.412c-3.301.338-6.388 1.659-8.79 3.76a12.808 12.808 0 0 0-1.026 4.019l-.004.051z"/></symbol>
<symbol id="icon-group-6" viewBox="0 0 67 32">
<path d="M33.724 15.223a2.084 2.084 0 0 1-.43-1.42v.006-2.051c0-.628.142-1.106.428-1.433.284-.327.774-.489 1.468-.488.652 0 1.116.139 1.389.417.299.355.444.789.411 1.226v.482h-1.166v-.489a2.465 2.465 0 0 0-.034-.477.464.464 0 0 0-.166-.283l-.001-.001a.672.672 0 0 0-.373-.112l-.052.002h.002a.712.712 0 0 0-.447.118l.003-.002a.546.546 0 0 0-.193.309l-.001.004c-.03.14-.047.302-.047.467v.042-.002 2.488c-.019.24.033.48.149.698a.55.55 0 0 0 .23.168l.004.001a.633.633 0 0 0 .305.039H35.2a.63.63 0 0 0 .414-.114l-.002.001a.503.503 0 0 0 .174-.299v-.003c.027-.165.04-.332.036-.498v-.505h1.167v.461a1.866 1.866 0 0 1-.406 1.293l.003-.004c-.268.304-.725.457-1.397.457s-1.179-.163-1.466-.501zm4.859.022c-.295-.32-.442-.784-.442-1.399v-2.157c0-.609.147-1.07.442-1.383s.787-.469 1.478-.467c.686 0 1.176.156 1.471.467.294.313.444.774.444 1.383v2.156c0 .609-.149 1.077-.449 1.398s-.787.481-1.466.481-1.181-.163-1.479-.479zm2.021-.518c.106-.199.154-.419.14-.638v-2.641a1.18 1.18 0 0 0-.14-.632l.003.006a.558.558 0 0 0-.234-.17l-.004-.001a.622.622 0 0 0-.312-.037h.003a.643.643 0 0 0-.313.038l.004-.002a.569.569 0 0 0-.239.171l-.001.001c-.107.195-.154.41-.14.626V14.1c-.014.22.033.439.14.639a.732.732 0 0 0 .246.158.832.832 0 0 0 .605-.002l-.006.002a.723.723 0 0 0 .246-.158v-.013zm2.777-4.825h1.256l.944 3.979.967-3.979h1.222l.124 5.743h-.904l-.097-3.991-.932 3.991h-.725l-.966-4.006-.09 4.006h-.913l.114-5.743zm5.92 0h1.957c1.127 0 1.691.543 1.691 1.631 0 1.041-.594 1.562-1.781 1.56h-.666v2.552h-1.208l.007-5.744zm1.672 2.454a.93.93 0 0 0 .665-.182.928.928 0 0 0 .174-.649l.001-.063c0-.163-.022-.321-.062-.471l.003.013a.43.43 0 0 0-.089-.158.502.502 0 0 0-.149-.114l-.003-.001a1.24 1.24 0 0 0-.476-.094l-.066.002h.003-.469v1.717h.469zm3.719-2.454h1.297l1.331 5.743h-1.126l-.263-1.324h-1.157l-.27 1.324h-1.143l1.331-5.743zm1.108 3.753-.452-2.411-.452 2.411h.903zm2.594-3.753h.846l1.618 3.276V9.902h1.003v5.743h-.804l-1.628-3.42v3.42h-1.036l.002-5.743zm5.815 3.552-1.345-3.545h1.133l.821 2.278.77-2.278h1.109l-1.329 3.546v2.19h-1.159v-2.19zM35.59 18.156v.3h-.986v2.334h-.413v-2.334H33.2v-.3h2.389zm3.089 2.634h-.328a.141.141 0 0 1-.081-.025.137.137 0 0 1-.052-.06v-.001l-.285-.626h-1.367l-.284.626a.168.168 0 0 1-.044.071.144.144 0 0 1-.082.025h-.326l1.208-2.634h.42l1.223 2.624zm-2-.978h1.14l-.484-1.072a1.765 1.765 0 0 1-.086-.235l-.003-.014-.045.14-.044.11-.478 1.07zm4.083.719c.076.004.151.004.228 0a1.41 1.41 0 0 0 .193-.031c.059-.012.117-.028.174-.048.053-.018.107-.042.161-.065v-.592h-.487a.095.095 0 0 1-.061-.022.06.06 0 0 1-.018-.021.048.048 0 0 1-.006-.024V19.523h.937v1.01a1.792 1.792 0 0 1-.496.211l-.013.003c-.1.026-.2.043-.302.055a3.774 3.774 0 0 1-.353.016h-.015c-.212 0-.416-.036-.606-.102l.013.004a1.499 1.499 0 0 1-.486-.277l.002.002a1.276 1.276 0 0 1-.308-.409l-.003-.008a1.3 1.3 0 0 1-.111-.529v-.019.001-.016c0-.193.04-.377.112-.543l-.003.009c.069-.156.176-.299.311-.417.138-.119.302-.211.484-.273.206-.068.427-.101.647-.098.112 0 .225.007.336.023a1.62 1.62 0 0 1 .529.172c.074.041.144.087.211.137l-.116.163a.101.101 0 0 1-.039.035h-.001a.112.112 0 0 1-.055.014.156.156 0 0 1-.075-.021h.001a1.595 1.595 0 0 1-.126-.066l.007.004a1.098 1.098 0 0 0-.154-.069l-.008-.002a1.522 1.522 0 0 0-.213-.057l-.009-.001a1.749 1.749 0 0 0-.29-.023h-.017.001-.015c-.162 0-.317.027-.462.076l.01-.003a1.022 1.022 0 0 0-.356.208.944.944 0 0 0-.222.321l-.002.006a1.234 1.234 0 0 0 .003.887l-.003-.008a.938.938 0 0 0 .242.332c.099.09.219.161.352.208.154.046.316.063.479.052zm3.85-.041h1.319v.3h-1.722v-2.634h.412l-.009 2.334zm2.691.3h-.412v-2.634h.412v2.634zm1.537-2.621a.2.2 0 0 1 .063.047l1.766 1.985-.002-.047.002-.049v.002-1.963h.36v2.645h-.222a.196.196 0 0 1-.077-.016h.001a.23.23 0 0 1-.065-.05l-1.764-1.984v2.048h-.346v-2.634h.215c.023 0 .047.004.068.012zm5.23-.013v.289h-1.463v.87h1.186v.279h-1.186v.9h1.463v.289h-1.889v-2.628h1.889zM10.782 1.889l18.343 4.496v15.757l-18.343-4.494V1.888zM9.605.545v17.868l20.693 5.075V5.622L9.605.546z"/><path d="M20.696 31.781 0 26.702V8.837l20.696 5.077v17.867z"/><path d="m9.948 1.686 18.103 4.44-7.698 6.649L2.246 8.333l7.702-6.647zM9.605.545 0 8.837l20.696 5.077 9.603-8.294L9.606.545zM21.86 30.776l8.439-7.288-8.439-2.069v9.358z"/></symbol>
<symbol id="icon-group-1" viewBox="0 0 27 32">
<path d="m4 .475 4.672 4.423L0 4.893v21.458h22.667v-8.205l4.667 4.418V.475H4.001zm18.461 17.153L9.214 5.088h13.247v12.54zm-4.112 5.585H3.587V8.78H4.63v13.455h13.719v.977zM7.073 29.208l-.545 1.123-.545-1.123h-.457l.796 1.497v.873h.413v-.873l.794-1.497h-.455zm.686 2.37.192-.552h.918l.193.552h.43l-.897-2.37h-.37l-.895 2.37h.428zm.65-1.867.343.983h-.687l.343-.983zm2.172.926a.533.533 0 0 0-.089.297v.004c0 .2.07.362.21.487s.329.186.563.186a.973.973 0 0 0 .605-.191l.133.158h.459l-.348-.412c.137-.187.205-.426.205-.717h-.343a.946.946 0 0 1-.099.434l-.458-.54.161-.117a.913.913 0 0 0 .244-.244l.002-.003a.517.517 0 0 0 .075-.269v-.013a.484.484 0 0 0-.166-.366h-.001a.596.596 0 0 0-.4-.154h-.025.001a.629.629 0 0 0-.455.163.575.575 0 0 0-.169.439c0 .076.018.155.053.236.037.081.102.18.193.296-.175.126-.293.235-.353.327zm1.069.524a.6.6 0 0 1-.374.133h-.019a.387.387 0 0 1-.264-.103.351.351 0 0 1-.106-.253v-.014.001c0-.127.065-.24.195-.339l.051-.036.517.611zm-.425-1.05c-.112-.137-.168-.252-.168-.343 0-.079.023-.145.069-.197a.233.233 0 0 1 .174-.078h.011-.001.009c.065 0 .125.025.169.067.047.043.07.096.07.157v.009a.295.295 0 0 1-.1.221l-.051.04-.181.124zm3.858 1.288c.163-.142.256-.34.28-.592h-.41c-.022.169-.073.29-.155.363s-.203.109-.365.109c-.177 0-.311-.067-.403-.202s-.137-.33-.137-.586v-.21c.003-.253.051-.444.147-.575a.484.484 0 0 1 .413-.197c.154 0 .271.038.35.113s.13.198.15.369h.41c-.027-.26-.119-.46-.279-.603s-.37-.213-.631-.213a.958.958 0 0 0-.514.139.9.9 0 0 0-.338.388l-.002.006c-.076.166-.12.359-.12.563v.029-.001.221c.003.218.044.409.122.575s.189.292.332.383a.934.934 0 0 0 .5.133c.27 0 .487-.071.649-.212zm2.42-.332c.08-.175.121-.38.121-.612V30.3c0-.211-.046-.412-.128-.592l.004.009a.907.907 0 0 0-.343-.398l-.004-.002c-.149-.093-.319-.14-.513-.14s-.364.047-.514.141a.924.924 0 0 0-.347.405 1.433 1.433 0 0 0-.122.583v.031-.002.133c.001.227.042.427.123.6a.944.944 0 0 0 .349.403.96.96 0 0 0 .514.14.95.95 0 0 0 .515-.14.92.92 0 0 0 .345-.404zm-.441-1.34c.1.14.149.341.149.604v.123c0 .267-.049.47-.148.609a.481.481 0 0 1-.42.209h-.017a.492.492 0 0 1-.405-.212l-.001-.002c-.101-.142-.151-.343-.151-.604v-.137c.002-.255.053-.452.153-.591a.486.486 0 0 1 .401-.21h.018-.001c.183 0 .323.07.422.21z"/></symbol>
<symbol id="icon-group-4" viewBox="0 0 65 32"><path d="M10.016 9.983h-.002c-1.827 0-3.308 1.316-3.308 2.94v.002c0 1.624 1.481 2.94 3.308 2.94h.002c1.827 0 3.308-1.316 3.308-2.94v-.002c0-1.624-1.481-2.94-3.308-2.94zm24.418-.94c-.005-2.255-1.015-4.417-2.81-6.012S27.398.538 24.86.533c-2.538.004-4.972.902-6.767 2.497s-2.806 3.757-2.811 6.013v12.436s19.149-1.895 19.151-12.434v-.002zM0 25.562c.005 1.569.708 3.073 1.956 4.183s2.94 1.735 4.706 1.74c1.765-.005 3.457-.63 4.705-1.739s1.952-2.613 1.957-4.182V16.91S-.001 18.23-.001 25.562zm6.662 1.55c-.345 0-.682-.091-.969-.261s-.511-.413-.643-.696-.167-.595-.099-.896.233-.577.477-.794.555-.364.893-.424c.338-.06.689-.029 1.008.088s.591.316.783.571a1.4 1.4 0 0 1 .159 1.464l.004-.009c-.087.189-.216.36-.378.505s-.355.259-.567.338-.439.119-.669.119v-.006zm13.466-.854h-1.286v1.328h-.67v-3.25h2.116v.542h-1.446v.839h1.286v.54zm3.218-.223c0 .32-.057.6-.17.842s-.275.427-.487.558c-.21.131-.451.196-.723.196l-.042.001c-.516 0-.961-.303-1.167-.741l-.003-.008a1.883 1.883 0 0 1-.176-.801v-.031.002-.161c0-.32.057-.601.172-.844.207-.45.653-.757 1.171-.757l.043.001h-.002c.271 0 .511.065.721.196.211.129.374.316.489.56.116.242.174.523.174.841v.145zm-.678-.147c0-.341-.061-.6-.183-.777s-.296-.266-.522-.266l-.025-.001a.596.596 0 0 0-.493.261l-.001.002c-.122.174-.184.43-.185.768v.158c0 .332.061.589.183.772s.298.275.527.275l.025.001a.591.591 0 0 0 .491-.261l.001-.002c.121-.177.182-.434.183-.772v-.158zm2.85.846v-.018a.34.34 0 0 0-.134-.271l-.001-.001c-.089-.068-.25-.14-.482-.214a3.473 3.473 0 0 1-.57-.232l.019.009c-.369-.199-.554-.468-.554-.806 0-.176.049-.332.147-.469a.998.998 0 0 1 .419-.322l.007-.002c.186-.077.394-.116.625-.116s.439.042.621.127a.99.99 0 0 1 .42.351l.002.004a.919.919 0 0 1 .152.508v.014-.001h-.67l.001-.025a.438.438 0 0 0-.141-.321c-.094-.083-.225-.125-.395-.125-.164 0-.291.035-.382.105a.322.322 0 0 0-.136.263v.009c0 .106.053.194.158.266.107.071.264.138.471.201.381.115.659.257.833.426s.261.381.261.634l.001.031a.786.786 0 0 1-.317.631l-.002.002c-.213.159-.499.239-.859.239-.25 0-.478-.045-.683-.136a1.112 1.112 0 0 1-.469-.374l-.002-.003a.961.961 0 0 1-.161-.535v-.02.001h.672c0 .359.214.538.643.538a.624.624 0 0 0 .376-.098l-.003.002a.317.317 0 0 0 .134-.26v-.013.001zm3.574-1.855h-.996v2.708h-.67v-2.708h-.982v-.542h2.647v.542zm2.339 1.299h-1.286v.871h1.509v.538h-2.179v-3.25h2.174v.542h-1.504v.775h1.286v.525zm1.82.218h-.533v1.19h-.67v-3.25h1.208c.384 0 .68.086.888.257s.312.413.312.725l.001.037a.99.99 0 0 1-.148.523l.002-.004a.986.986 0 0 1-.429.351l-.006.002.703 1.328v.031h-.719l-.609-1.19zm-.534-.542h.54c.168 0 .298-.042.391-.127a.46.46 0 0 0 .139-.33l-.001-.026v.001l.001-.027c0-.13-.05-.248-.133-.336-.086-.088-.219-.132-.4-.132h-.538v.975zm4.058.587v1.145h-.67v-3.25h1.268c.244 0 .458.045.643.134.18.084.326.215.427.378l.002.004c.1.164.15.35.15.56 0 .318-.109.57-.328.754-.217.183-.519.275-.904.275h-.587zm0-.542h.598c.177 0 .312-.042.404-.125.094-.083.141-.202.141-.357 0-.159-.047-.288-.141-.386s-.223-.149-.388-.152h-.614v1.02zm4.237.279h-1.286v.871h1.509v.538h-2.179v-3.25h2.174v.542h-1.504v.775h1.286v.525zm3.107-1.299h-.995v2.708h-.67v-2.708h-.982v-.542h2.647v.542zm2.339 1.299h-1.286v.871h1.509v.538h-2.178v-3.25h2.174v.542h-1.504v.775h1.286v.525zm1.819.218h-.533v1.19h-.67v-3.25h1.208c.384 0 .68.086.888.257s.313.413.313.725l.001.037a.99.99 0 0 1-.148.523l.002-.004a.986.986 0 0 1-.429.351l-.006.002.703 1.328v.031h-.719l-.609-1.19zm-.533-.542h.54c.168 0 .298-.042.391-.127a.46.46 0 0 0 .139-.33l-.001-.026v.001l.001-.027c0-.13-.05-.248-.133-.336-.086-.088-.219-.132-.4-.132h-.538v.975zm3.935.88v-.018a.34.34 0 0 0-.134-.271l-.001-.001c-.089-.068-.25-.14-.482-.214a3.473 3.473 0 0 1-.57-.232l.019.009c-.369-.199-.554-.468-.554-.806 0-.176.049-.332.147-.469a.998.998 0 0 1 .419-.322l.007-.002c.186-.077.394-.116.625-.116s.439.042.621.127a.983.983 0 0 1 .42.351l.002.004a.919.919 0 0 1 .152.508v.014-.001h-.67l.001-.025a.434.434 0 0 0-.141-.321c-.094-.083-.225-.125-.395-.125-.164 0-.291.035-.382.105a.322.322 0 0 0-.136.263v.009c0 .106.053.194.158.266.107.071.264.138.471.201.381.115.658.257.833.426s.261.381.261.634l.001.031a.784.784 0 0 1-.318.631l-.002.002c-.213.159-.499.239-.859.239-.25 0-.478-.045-.683-.136a1.112 1.112 0 0 1-.469-.374l-.002-.003a.961.961 0 0 1-.161-.535v-.02.001h.672c0 .359.214.538.643.538l.036.001a.63.63 0 0 0 .34-.099l-.003.002a.317.317 0 0 0 .134-.26v-.013.001z"/></symbol>
<symbol id="icon-instagram" viewBox="0 0 32 32">
<path d="M31.968 9.408c-.074-1.701-.349-2.869-.742-3.882a7.839 7.839 0 0 0-1.85-2.837l-.001-.001A7.906 7.906 0 0 0 26.597.861l-.054-.018C25.524.449 24.362.176 22.661.101 20.949.019 20.405 0 16.059 0c-4.344 0-4.888.019-6.595.094-1.699.074-2.869.349-3.88.742a7.847 7.847 0 0 0-2.839 1.85l-.001.001A7.9 7.9 0 0 0 .919 5.465l-.018.054C.506 6.538.232 7.7.157 9.401c-.082 1.712-.101 2.256-.101 6.602 0 4.344.019 4.888.094 6.595.075 1.701.35 2.869.744 3.882a7.915 7.915 0 0 0 1.849 2.837l.001.001c.8.813 1.77 1.443 2.832 1.843 1.019.395 2.182.67 3.882.744 1.707.075 2.251.094 6.595.094 4.346 0 4.89-.019 6.595-.094 1.701-.074 2.869-.349 3.882-.742a8.237 8.237 0 0 0 4.664-4.628l.019-.055c.394-1.019.669-2.182.744-3.882.075-1.707.093-2.251.093-6.595s-.006-4.888-.08-6.595zm-2.88 13.066c-.07 1.563-.333 2.406-.55 2.97a5.341 5.341 0 0 1-3.004 3.024l-.036.012c-.56.219-1.411.482-2.968.55-1.688.075-2.194.094-6.464.094-4.269 0-4.782-.019-6.464-.094-1.563-.069-2.406-.331-2.97-.55a4.953 4.953 0 0 1-1.836-1.192l-.001-.001a4.978 4.978 0 0 1-1.184-1.803L3.6 25.45c-.218-.563-.48-1.413-.549-2.97-.075-1.688-.094-2.195-.094-6.464 0-4.27.019-4.784.094-6.464.069-1.563.331-2.406.549-2.97a4.897 4.897 0 0 1 1.198-1.837l.002-.002a4.972 4.972 0 0 1 1.806-1.182l.034-.011c.56-.219 1.411-.48 2.968-.55 1.688-.074 2.195-.093 6.464-.093 4.275 0 4.782.019 6.464.093 1.563.069 2.406.331 2.97.55a4.91 4.91 0 0 1 1.837 1.194c.531.52.938 1.144 1.195 1.84.218.56.48 1.411.549 2.968.075 1.688.094 2.194.094 6.464 0 4.269-.019 4.768-.094 6.458z"/><path d="M16.059 7.782a8.223 8.223 0 0 0-8.219 8.221 8.223 8.223 0 0 0 16.442.008v-.009a8.223 8.223 0 0 0-8.221-8.221zm0 13.552a5.333 5.333 0 0 1 .001-10.666h.001a5.334 5.334 0 1 1 0 10.668zM26.525 7.458a1.92 1.92 0 0 1-3.84 0 1.92 1.92 0 0 1 3.84 0z"/></symbol>
<symbol id="icon-linkedin" viewBox="0 0 32 32"><path d="M31.992 32H32V20.262c0-5.741-1.237-10.163-7.947-10.163-3.227 0-5.392 1.77-6.277 3.45h-.093v-2.914h-6.365v21.363h6.627V21.42c0-2.786.528-5.48 3.978-5.48 3.398 0 3.448 3.179 3.448 5.658V32h6.621zM.528 10.635h6.635V32H.528V10.635zM3.843 0A3.843 3.843 0 0 0 0 3.843c0 2.12 1.722 3.878 3.843 3.878 2.12 0 3.842-1.757 3.842-3.878S5.965.002 3.844 0z"/></symbol>
<symbol id="icon-smartphone" viewBox="0 0 20 32"><path d="M17 0H3C1.346 0 0 1.346 0 3v26c0 1.654 1.346 3 3 3h14c1.654 0 3-1.346 3-3V3c0-1.654-1.346-3-3-3zM3 2h14a1 1 0 0 1 1 1v21H2V3a1 1 0 0 1 1-1zm14 28H3a1 1 0 0 1-1-1v-3h16v3a1 1 0 0 1-1 1z"/><path d="M4.708 27.478a.889.889 0 0 1 .001 1.319l-.001.001a1.048 1.048 0 0 1-1.417 0l.001.001a.889.889 0 0 1-.001-1.319l.001-.001a1.048 1.048 0 0 1 1.417 0l-.001-.001z"/></symbol>
<symbol id="icon-twitter" viewBox="0 0 32 32"><path d="M32 6.078c-1.1.493-2.376.857-3.713 1.028l-.068.007a6.556 6.556 0 0 0 2.873-3.579l.013-.046a12.88 12.88 0 0 1-4.076 1.573l-.084.014A6.558 6.558 0 0 0 15.6 9.557v.004c0 .52.043 1.021.152 1.496-5.454-.266-10.28-2.88-13.522-6.861a6.524 6.524 0 0 0-.902 3.313v.001a6.57 6.57 0 0 0 2.914 5.451 6.453 6.453 0 0 1-2.994-.823l.033.017v.072a6.592 6.592 0 0 0 5.213 6.44l.043.008a6.403 6.403 0 0 1-1.662.215h-.061.003c-.419 0-.843-.024-1.242-.112.85 2.598 3.261 4.509 6.13 4.57a13.093 13.093 0 0 1-8.122 2.8H1.57h.001-.062c-.531 0-1.055-.034-1.569-.099l.061.006c2.826 1.846 6.287 2.944 10.004 2.944h.063-.003c12.072 0 18.672-10 18.672-18.669 0-.288-.01-.57-.024-.848a13.203 13.203 0 0 0 3.258-3.355l.03-.047z"/></symbol>

<symbol id="icon-icon-send" viewBox="0 0 32 32">
<path d="M32 0l-32 18 10.227 3.788 15.773-14.788-11.998 16.186 0.010 0.004-0.012-0.004v8.814l5.735-6.691 7.265 2.691 5-28z"></path>
</symbol>
<symbol id="icon-Vector" viewBox="0 0 32 32">
<path stroke-linejoin="miter" stroke-linecap="butt" stroke-miterlimit="4" stroke-width="0.4923" d="M4.817 15.389l-0.169-0.162-2.544 2.41 8.962 8.55 18.829-17.962-2.527-2.411-16.302 15.536-6.249-5.962z"></path>
</symbol>
<symbol id="icon-email-black" viewBox="0 0 32 32">
<path d="M26.667 5.333h-21.333c-1.467 0-2.653 1.2-2.653 2.667l-0.013 16c0 1.467 1.2 2.667 2.667 2.667h21.333c1.467 0 2.667-1.2 2.667-2.667v-16c0-1.467-1.2-2.667-2.667-2.667zM26.133 11l-9.427 5.893c-0.427 0.267-0.987 0.267-1.413 0l-9.427-5.893c-0.333-0.213-0.533-0.573-0.533-0.96 0-0.893 0.973-1.427 1.733-0.96l8.933 5.587 8.933-5.587c0.76-0.467 1.733 0.067 1.733 0.96 0 0.387-0.2 0.747-0.533 0.96z"></path>
</symbol>
<symbol id="icon-phone-black" viewBox="0 0 32 32">
<path d="M24.882 19.773l-3.268-0.373c-0.785-0.090-1.557 0.18-2.11 0.733l-2.367 2.367c-3.641-1.853-6.626-4.825-8.478-8.478l2.38-2.38c0.553-0.553 0.823-1.325 0.733-2.11l-0.373-3.242c-0.154-1.299-1.248-2.277-2.56-2.277h-2.226c-1.454 0-2.663 1.209-2.573 2.663 0.682 10.987 9.469 19.761 20.443 20.443 1.454 0.090 2.663-1.119 2.663-2.573v-2.226c0.013-1.3-0.965-2.393-2.264-2.547z"></path>
</symbol>
<symbol id="icon-person-black" viewBox="0 0 32 32">
<path d="M16 16c2.947 0 5.333-2.387 5.333-5.333s-2.387-5.333-5.333-5.333c-2.947 0-5.333 2.387-5.333 5.333s2.387 5.333 5.333 5.333zM16 18.667c-3.56 0-10.667 1.787-10.667 5.333v1.333c0 0.733 0.6 1.333 1.333 1.333h18.667c0.733 0 1.333-0.6 1.333-1.333v-1.333c0-3.547-7.107-5.333-10.667-5.333z"></path>
</symbol></defs></svg>